<svg width="59" height="85" viewBox="0 0 59 85" fill="none" xmlns="http://www.w3.org/2000/svg">
<path fill-rule="evenodd" clip-rule="evenodd" d="M2.68698 34.5072C5.41625 36.8802 5.8244 29.0877 20.1209 25.0865C34.4174 21.0853 37.9758 25.8909 42.9698 29.7538C43.3214 30.0595 43.78 30.213 44.2448 30.1806C44.7095 30.1481 45.1424 29.9324 45.4481 29.5808C45.7537 29.2292 45.9073 28.7706 45.8748 28.3058C45.8424 27.8411 45.6266 27.4082 45.275 27.1025C43.1196 24.6435 40.6407 22.4881 37.906 20.6953C33.9256 18.7568 29.5137 17.8738 25.0938 18.1311C20.6739 18.3883 16.3943 19.7772 12.6656 22.1645C8.59611 24.8629 5.11516 28.3575 2.43261 32.4374C2.2209 32.756 2.13017 33.1398 2.17683 33.5194C2.22348 33.899 2.40444 34.2494 2.68698 34.5072Z" fill="#7D5FFF"/>
<path fill-rule="evenodd" clip-rule="evenodd" d="M46.6159 30.0486L45.7802 30.1436C38.8642 33.3731 36.2198 33.2648 35.5079 34.0836C35.3738 34.2762 35.2852 34.4967 35.2488 34.7286C35.2124 34.9604 35.2291 35.1975 35.2977 35.4219C35.3663 35.6464 35.4849 35.8523 35.6447 36.0242C35.8044 36.1961 36.0011 36.3295 36.22 36.4143C39.9888 36.3785 43.7493 36.0547 47.4688 35.4459C49.9114 34.7626 52.8118 34.3404 52.5641 31.318C52.4653 29.6464 52.1531 27.9944 51.635 26.4021C51.2128 25.0766 47.0322 15.5535 46.6813 15.2484C46.348 15.0811 45.9748 15.0095 45.6033 15.0416C45.2318 15.0737 44.8764 15.2084 44.5768 15.4305C44.2773 15.6526 44.0452 15.9535 43.9065 16.2996C43.7678 16.6458 43.7279 17.0237 43.7912 17.3912C44.2745 21.1662 46.0919 25.6905 46.6159 30.0486Z" fill="#7D5FFF"/>
<path fill-rule="evenodd" clip-rule="evenodd" d="M56.313 50.4928C53.5838 48.1197 53.1756 55.9123 38.8791 59.9135C24.5826 63.9146 21.0242 59.1091 16.0302 55.2462C15.6786 54.9405 15.22 54.787 14.7552 54.8194C14.2905 54.8519 13.8576 55.0676 13.5519 55.4192C13.2463 55.7708 13.0927 56.2294 13.1252 56.6942C13.1576 57.1589 13.3734 57.5918 13.725 57.8975C15.8804 60.3565 18.3593 62.5119 21.094 64.3047C25.0744 66.2432 29.4863 67.1262 33.9062 66.8689C38.3261 66.6117 42.6057 65.2228 46.3344 62.8355C50.4039 60.1371 53.8848 56.6425 56.5674 52.5625C56.7791 52.244 56.8698 51.8602 56.8232 51.4806C56.7765 51.101 56.5956 50.7506 56.313 50.4928Z" fill="#7D5FFF"/>
<path fill-rule="evenodd" clip-rule="evenodd" d="M12.3841 54.9514L13.2198 54.8564C20.1358 51.6269 22.7802 51.7352 23.4921 50.9164C23.6262 50.7238 23.7148 50.5033 23.7512 50.2714C23.7876 50.0396 23.7709 49.8025 23.7023 49.5781C23.6337 49.3536 23.5151 49.1477 23.3553 48.9758C23.1956 48.8039 22.9989 48.6705 22.78 48.5857C19.0112 48.6215 15.2507 48.9453 11.5312 49.5541C9.08856 50.2374 6.18822 50.6596 6.43585 53.682C6.53468 55.3535 6.84694 57.0056 7.36502 58.5978C7.78717 59.9234 11.9678 69.4464 12.3187 69.7515C12.652 69.9189 13.0252 69.9905 13.3967 69.9584C13.7682 69.9263 14.1236 69.7916 14.4232 69.5695C14.7227 69.3474 14.9548 69.0465 15.0935 68.7003C15.2322 68.3542 15.2721 67.9763 15.2088 67.6088C14.7255 63.8337 12.9081 59.3095 12.3841 54.9514Z" fill="#7D5FFF"/>
</svg>
